<mxfile host="app.diagrams.net" modified="2022-06-28T04:02:28.547Z" agent="5.0 (Windows NT 10.0; Win64; x64) AppleWebKit/537.36 (KHTML, like Gecko) Chrome/101.0.4951.67 Safari/537.36 OPR/87.0.4390.58 (Edition std-1)" etag="PBAuasAbgFjofTlR07_d" version="20.0.3" type="github">
  <diagram id="C5RBs43oDa-KdzZeNtuy" name="Page-1">
    <mxGraphModel dx="1654" dy="1621" grid="1" gridSize="10" guides="1" tooltips="1" connect="1" arrows="1" fold="1" page="1" pageScale="1" pageWidth="827" pageHeight="1169" math="0" shadow="0">
      <root>
        <mxCell id="WIyWlLk6GJQsqaUBKTNV-0" />
        <mxCell id="WIyWlLk6GJQsqaUBKTNV-1" parent="WIyWlLk6GJQsqaUBKTNV-0" />
        <mxCell id="WIyWlLk6GJQsqaUBKTNV-3" value="Usuário" style="rounded=1;whiteSpace=wrap;html=1;fontSize=12;glass=0;strokeWidth=1;shadow=0;" parent="WIyWlLk6GJQsqaUBKTNV-1" vertex="1">
          <mxGeometry x="160" y="30" width="120" height="40" as="geometry" />
        </mxCell>
        <mxCell id="9ak0LHtvJR38YGEigGyo-1" value="&lt;hr&gt;&lt;hr&gt;&lt;hr&gt;" style="text;html=1;resizable=0;autosize=1;align=center;verticalAlign=middle;points=[];fillColor=none;strokeColor=none;rounded=0;horizontal=0;container=0;" vertex="1" parent="WIyWlLk6GJQsqaUBKTNV-1">
          <mxGeometry x="580" width="30" height="40" as="geometry" />
        </mxCell>
        <mxCell id="9ak0LHtvJR38YGEigGyo-2" value="&lt;ul&gt;&lt;li&gt;ID Usuário&lt;/li&gt;&lt;li&gt;Nickname&lt;/li&gt;&lt;li&gt;Celular&lt;/li&gt;&lt;/ul&gt;" style="text;strokeColor=none;fillColor=none;html=1;whiteSpace=wrap;verticalAlign=middle;overflow=hidden;direction=west;flipV=1;flipH=1;rotation=0;align=left;" vertex="1" parent="WIyWlLk6GJQsqaUBKTNV-1">
          <mxGeometry x="260" y="10" width="100" height="80" as="geometry" />
        </mxCell>
        <mxCell id="9ak0LHtvJR38YGEigGyo-6" value="Avaliação" style="rounded=1;whiteSpace=wrap;html=1;fontSize=12;glass=0;strokeWidth=1;shadow=0;" vertex="1" parent="WIyWlLk6GJQsqaUBKTNV-1">
          <mxGeometry x="160" y="210" width="120" height="40" as="geometry" />
        </mxCell>
        <mxCell id="9ak0LHtvJR38YGEigGyo-8" value="&lt;ul&gt;&lt;li&gt;ID Avaliação&lt;/li&gt;&lt;li&gt;Comentário&lt;/li&gt;&lt;li&gt;PK Prestador&lt;/li&gt;&lt;li&gt;PK Usuário&lt;/li&gt;&lt;/ul&gt;" style="text;strokeColor=none;fillColor=none;html=1;whiteSpace=wrap;verticalAlign=middle;overflow=hidden;" vertex="1" parent="WIyWlLk6GJQsqaUBKTNV-1">
          <mxGeometry x="260" y="190" width="130" height="80" as="geometry" />
        </mxCell>
        <mxCell id="9ak0LHtvJR38YGEigGyo-9" value="Prestador" style="rounded=1;whiteSpace=wrap;html=1;fontSize=12;glass=0;strokeWidth=1;shadow=0;" vertex="1" parent="WIyWlLk6GJQsqaUBKTNV-1">
          <mxGeometry x="160" y="400" width="120" height="40" as="geometry" />
        </mxCell>
        <mxCell id="9ak0LHtvJR38YGEigGyo-10" value="FAZ" style="rhombus;whiteSpace=wrap;html=1;" vertex="1" parent="WIyWlLk6GJQsqaUBKTNV-1">
          <mxGeometry x="180" y="100" width="80" height="80" as="geometry" />
        </mxCell>
        <mxCell id="9ak0LHtvJR38YGEigGyo-14" value="" style="line;strokeWidth=2;html=1;direction=south;" vertex="1" parent="WIyWlLk6GJQsqaUBKTNV-1">
          <mxGeometry x="215" y="70" width="10" height="30" as="geometry" />
        </mxCell>
        <mxCell id="9ak0LHtvJR38YGEigGyo-15" value="" style="line;strokeWidth=2;html=1;direction=south;" vertex="1" parent="WIyWlLk6GJQsqaUBKTNV-1">
          <mxGeometry x="215" y="180" width="10" height="30" as="geometry" />
        </mxCell>
        <mxCell id="9ak0LHtvJR38YGEigGyo-16" value="TEM" style="rhombus;whiteSpace=wrap;html=1;" vertex="1" parent="WIyWlLk6GJQsqaUBKTNV-1">
          <mxGeometry x="180" y="290" width="80" height="80" as="geometry" />
        </mxCell>
        <mxCell id="9ak0LHtvJR38YGEigGyo-17" value="" style="line;strokeWidth=2;html=1;direction=south;" vertex="1" parent="WIyWlLk6GJQsqaUBKTNV-1">
          <mxGeometry x="215" y="250" width="10" height="40" as="geometry" />
        </mxCell>
        <mxCell id="9ak0LHtvJR38YGEigGyo-18" value="" style="line;strokeWidth=2;html=1;direction=south;" vertex="1" parent="WIyWlLk6GJQsqaUBKTNV-1">
          <mxGeometry x="215" y="370" width="10" height="30" as="geometry" />
        </mxCell>
        <mxCell id="9ak0LHtvJR38YGEigGyo-19" value="&lt;ul&gt;&lt;li&gt;ID Prestador&lt;/li&gt;&lt;li&gt;CNPJ&lt;/li&gt;&lt;li&gt;Nome Completo&lt;/li&gt;&lt;li&gt;PK Endereço&lt;/li&gt;&lt;li&gt;PK Contato&lt;/li&gt;&lt;/ul&gt;" style="text;strokeColor=none;fillColor=none;html=1;whiteSpace=wrap;verticalAlign=middle;overflow=hidden;" vertex="1" parent="WIyWlLk6GJQsqaUBKTNV-1">
          <mxGeometry x="260" y="370" width="130" height="90" as="geometry" />
        </mxCell>
        <mxCell id="9ak0LHtvJR38YGEigGyo-21" value="Endereço" style="rounded=1;whiteSpace=wrap;html=1;fontSize=12;glass=0;strokeWidth=1;shadow=0;" vertex="1" parent="WIyWlLk6GJQsqaUBKTNV-1">
          <mxGeometry x="-110" y="485" width="120" height="40" as="geometry" />
        </mxCell>
        <mxCell id="9ak0LHtvJR38YGEigGyo-22" value="&lt;ul&gt;&lt;li&gt;ID Endereço&lt;/li&gt;&lt;li&gt;Rua&lt;/li&gt;&lt;li&gt;Número&lt;/li&gt;&lt;li&gt;Bairro&lt;/li&gt;&lt;li&gt;CEP&lt;/li&gt;&lt;/ul&gt;" style="text;strokeColor=none;fillColor=none;html=1;whiteSpace=wrap;verticalAlign=middle;overflow=hidden;" vertex="1" parent="WIyWlLk6GJQsqaUBKTNV-1">
          <mxGeometry x="-10" y="460" width="130" height="90" as="geometry" />
        </mxCell>
        <mxCell id="9ak0LHtvJR38YGEigGyo-27" value="" style="line;strokeWidth=2;html=1;direction=south;" vertex="1" parent="WIyWlLk6GJQsqaUBKTNV-1">
          <mxGeometry x="-60" y="460" width="10" height="25" as="geometry" />
        </mxCell>
        <mxCell id="9ak0LHtvJR38YGEigGyo-28" value="" style="line;strokeWidth=2;html=1;direction=west;" vertex="1" parent="WIyWlLk6GJQsqaUBKTNV-1">
          <mxGeometry x="-20" y="415" width="180" height="10" as="geometry" />
        </mxCell>
        <mxCell id="9ak0LHtvJR38YGEigGyo-29" value="Contato" style="rounded=1;whiteSpace=wrap;html=1;fontSize=12;glass=0;strokeWidth=1;shadow=0;" vertex="1" parent="WIyWlLk6GJQsqaUBKTNV-1">
          <mxGeometry x="-30" y="650" width="120" height="40" as="geometry" />
        </mxCell>
        <mxCell id="9ak0LHtvJR38YGEigGyo-30" value="&lt;ul&gt;&lt;li&gt;ID Contato&lt;/li&gt;&lt;li&gt;Celular&lt;/li&gt;&lt;li&gt;Telefone&lt;/li&gt;&lt;li&gt;Email&lt;/li&gt;&lt;/ul&gt;" style="text;strokeColor=none;fillColor=none;html=1;whiteSpace=wrap;verticalAlign=middle;overflow=hidden;" vertex="1" parent="WIyWlLk6GJQsqaUBKTNV-1">
          <mxGeometry x="70" y="625" width="130" height="90" as="geometry" />
        </mxCell>
        <mxCell id="9ak0LHtvJR38YGEigGyo-36" value="" style="line;strokeWidth=2;html=1;direction=south;" vertex="1" parent="WIyWlLk6GJQsqaUBKTNV-1">
          <mxGeometry x="25" y="585" width="10" height="65" as="geometry" />
        </mxCell>
        <mxCell id="9ak0LHtvJR38YGEigGyo-37" value="" style="line;strokeWidth=2;html=1;direction=west;" vertex="1" parent="WIyWlLk6GJQsqaUBKTNV-1">
          <mxGeometry x="30" y="580" width="130" height="10" as="geometry" />
        </mxCell>
        <mxCell id="9ak0LHtvJR38YGEigGyo-38" value="" style="line;strokeWidth=2;html=1;direction=north;" vertex="1" parent="WIyWlLk6GJQsqaUBKTNV-1">
          <mxGeometry x="190" y="440" width="10" height="110" as="geometry" />
        </mxCell>
        <mxCell id="9ak0LHtvJR38YGEigGyo-39" value="TEM" style="rhombus;whiteSpace=wrap;html=1;" vertex="1" parent="WIyWlLk6GJQsqaUBKTNV-1">
          <mxGeometry x="-95" y="380" width="80" height="80" as="geometry" />
        </mxCell>
        <mxCell id="9ak0LHtvJR38YGEigGyo-40" value="TEM" style="rhombus;whiteSpace=wrap;html=1;" vertex="1" parent="WIyWlLk6GJQsqaUBKTNV-1">
          <mxGeometry x="155" y="545" width="80" height="80" as="geometry" />
        </mxCell>
        <mxCell id="9ak0LHtvJR38YGEigGyo-42" value="Credenciais" style="rounded=1;whiteSpace=wrap;html=1;fontSize=12;glass=0;strokeWidth=1;shadow=0;" vertex="1" parent="WIyWlLk6GJQsqaUBKTNV-1">
          <mxGeometry x="480" y="210" width="120" height="40" as="geometry" />
        </mxCell>
        <mxCell id="9ak0LHtvJR38YGEigGyo-43" value="&lt;ul&gt;&lt;li&gt;ID Crendenciais&lt;/li&gt;&lt;li&gt;Email&lt;/li&gt;&lt;li&gt;Senha&lt;/li&gt;&lt;li&gt;PK Usuário&lt;/li&gt;&lt;li&gt;PK Adm&lt;/li&gt;&lt;li&gt;Pk Prestador&lt;/li&gt;&lt;/ul&gt;" style="text;strokeColor=none;fillColor=none;html=1;whiteSpace=wrap;verticalAlign=middle;overflow=hidden;" vertex="1" parent="WIyWlLk6GJQsqaUBKTNV-1">
          <mxGeometry x="580" y="175" width="130" height="110" as="geometry" />
        </mxCell>
        <mxCell id="9ak0LHtvJR38YGEigGyo-44" value="" style="line;strokeWidth=2;html=1;direction=south;" vertex="1" parent="WIyWlLk6GJQsqaUBKTNV-1">
          <mxGeometry x="535" y="50" width="10" height="160" as="geometry" />
        </mxCell>
        <mxCell id="9ak0LHtvJR38YGEigGyo-45" value="" style="line;strokeWidth=2;html=1;direction=west;" vertex="1" parent="WIyWlLk6GJQsqaUBKTNV-1">
          <mxGeometry x="220" y="10" width="290" height="10" as="geometry" />
        </mxCell>
        <mxCell id="9ak0LHtvJR38YGEigGyo-47" value="TEM" style="rhombus;whiteSpace=wrap;html=1;" vertex="1" parent="WIyWlLk6GJQsqaUBKTNV-1">
          <mxGeometry x="500" y="-25" width="80" height="80" as="geometry" />
        </mxCell>
        <mxCell id="9ak0LHtvJR38YGEigGyo-52" value="" style="line;strokeWidth=2;html=1;direction=south;" vertex="1" parent="WIyWlLk6GJQsqaUBKTNV-1">
          <mxGeometry x="215" y="15" width="10" height="15" as="geometry" />
        </mxCell>
        <mxCell id="9ak0LHtvJR38YGEigGyo-53" value="" style="line;strokeWidth=2;html=1;direction=south;" vertex="1" parent="WIyWlLk6GJQsqaUBKTNV-1">
          <mxGeometry x="535" y="250" width="10" height="120" as="geometry" />
        </mxCell>
        <mxCell id="9ak0LHtvJR38YGEigGyo-54" value="" style="line;strokeWidth=2;html=1;" vertex="1" parent="WIyWlLk6GJQsqaUBKTNV-1">
          <mxGeometry x="264" y="360" width="240" height="3" as="geometry" />
        </mxCell>
        <mxCell id="9ak0LHtvJR38YGEigGyo-55" value="TEM" style="rhombus;whiteSpace=wrap;html=1;" vertex="1" parent="WIyWlLk6GJQsqaUBKTNV-1">
          <mxGeometry x="500" y="320" width="80" height="80" as="geometry" />
        </mxCell>
        <mxCell id="9ak0LHtvJR38YGEigGyo-57" value="" style="line;strokeWidth=2;html=1;direction=south;" vertex="1" parent="WIyWlLk6GJQsqaUBKTNV-1">
          <mxGeometry x="260" y="360" width="10" height="40" as="geometry" />
        </mxCell>
        <mxCell id="9ak0LHtvJR38YGEigGyo-58" value="Adm" style="rounded=1;whiteSpace=wrap;html=1;fontSize=12;glass=0;strokeWidth=1;shadow=0;" vertex="1" parent="WIyWlLk6GJQsqaUBKTNV-1">
          <mxGeometry x="780" width="120" height="40" as="geometry" />
        </mxCell>
        <mxCell id="9ak0LHtvJR38YGEigGyo-59" value="&lt;ul&gt;&lt;li&gt;ID Adm&lt;/li&gt;&lt;li&gt;Nome&lt;/li&gt;&lt;/ul&gt;" style="text;strokeColor=none;fillColor=none;html=1;whiteSpace=wrap;verticalAlign=middle;overflow=hidden;" vertex="1" parent="WIyWlLk6GJQsqaUBKTNV-1">
          <mxGeometry x="880" y="-35" width="130" height="110" as="geometry" />
        </mxCell>
        <mxCell id="9ak0LHtvJR38YGEigGyo-60" value="" style="line;strokeWidth=2;html=1;direction=west;" vertex="1" parent="WIyWlLk6GJQsqaUBKTNV-1">
          <mxGeometry x="660" y="17.5" width="120" height="10" as="geometry" />
        </mxCell>
        <mxCell id="9ak0LHtvJR38YGEigGyo-61" value="" style="line;strokeWidth=2;html=1;direction=south;" vertex="1" parent="WIyWlLk6GJQsqaUBKTNV-1">
          <mxGeometry x="655" y="60" width="10" height="86" as="geometry" />
        </mxCell>
        <mxCell id="9ak0LHtvJR38YGEigGyo-62" value="TEM" style="rhombus;whiteSpace=wrap;html=1;" vertex="1" parent="WIyWlLk6GJQsqaUBKTNV-1">
          <mxGeometry x="620" y="-17.5" width="80" height="80" as="geometry" />
        </mxCell>
        <mxCell id="9ak0LHtvJR38YGEigGyo-63" value="" style="line;strokeWidth=2;html=1;direction=west;" vertex="1" parent="WIyWlLk6GJQsqaUBKTNV-1">
          <mxGeometry x="570" y="140" width="90" height="10" as="geometry" />
        </mxCell>
        <mxCell id="9ak0LHtvJR38YGEigGyo-64" value="" style="line;strokeWidth=2;html=1;direction=south;" vertex="1" parent="WIyWlLk6GJQsqaUBKTNV-1">
          <mxGeometry x="566" y="146" width="10" height="64" as="geometry" />
        </mxCell>
        <mxCell id="9ak0LHtvJR38YGEigGyo-67" value="Atuação" style="rounded=1;whiteSpace=wrap;html=1;fontSize=12;glass=0;strokeWidth=1;shadow=0;" vertex="1" parent="WIyWlLk6GJQsqaUBKTNV-1">
          <mxGeometry x="780" y="180" width="120" height="40" as="geometry" />
        </mxCell>
        <mxCell id="9ak0LHtvJR38YGEigGyo-68" value="FAZ" style="rhombus;whiteSpace=wrap;html=1;" vertex="1" parent="WIyWlLk6GJQsqaUBKTNV-1">
          <mxGeometry x="800" y="70" width="80" height="80" as="geometry" />
        </mxCell>
        <mxCell id="9ak0LHtvJR38YGEigGyo-69" value="" style="line;strokeWidth=2;html=1;direction=south;" vertex="1" parent="WIyWlLk6GJQsqaUBKTNV-1">
          <mxGeometry x="835" y="40" width="10" height="30" as="geometry" />
        </mxCell>
        <mxCell id="9ak0LHtvJR38YGEigGyo-70" value="" style="line;strokeWidth=2;html=1;direction=south;" vertex="1" parent="WIyWlLk6GJQsqaUBKTNV-1">
          <mxGeometry x="835" y="150" width="10" height="30" as="geometry" />
        </mxCell>
        <mxCell id="9ak0LHtvJR38YGEigGyo-71" value="&lt;ul&gt;&lt;li&gt;ID Atuação&lt;/li&gt;&lt;li&gt;Descrição&lt;/li&gt;&lt;li&gt;PK Adm&lt;/li&gt;&lt;/ul&gt;" style="text;strokeColor=none;fillColor=none;html=1;whiteSpace=wrap;verticalAlign=middle;overflow=hidden;" vertex="1" parent="WIyWlLk6GJQsqaUBKTNV-1">
          <mxGeometry x="880" y="145" width="130" height="110" as="geometry" />
        </mxCell>
        <mxCell id="9ak0LHtvJR38YGEigGyo-72" value="Prestador HAS Atuação" style="rounded=1;whiteSpace=wrap;html=1;fontSize=12;glass=0;strokeWidth=1;shadow=0;dashed=1;" vertex="1" parent="WIyWlLk6GJQsqaUBKTNV-1">
          <mxGeometry x="770" y="400" width="130" height="40" as="geometry" />
        </mxCell>
        <mxCell id="9ak0LHtvJR38YGEigGyo-73" value="" style="line;strokeWidth=2;html=1;direction=south;" vertex="1" parent="WIyWlLk6GJQsqaUBKTNV-1">
          <mxGeometry x="835" y="220" width="3" height="180" as="geometry" />
        </mxCell>
        <mxCell id="9ak0LHtvJR38YGEigGyo-74" value="" style="line;strokeWidth=2;html=1;direction=south;" vertex="1" parent="WIyWlLk6GJQsqaUBKTNV-1">
          <mxGeometry x="830" y="440" width="10" height="61" as="geometry" />
        </mxCell>
        <mxCell id="9ak0LHtvJR38YGEigGyo-75" value="" style="line;strokeWidth=2;html=1;direction=west;" vertex="1" parent="WIyWlLk6GJQsqaUBKTNV-1">
          <mxGeometry x="254" y="500" width="581" height="2" as="geometry" />
        </mxCell>
        <mxCell id="9ak0LHtvJR38YGEigGyo-76" value="" style="line;strokeWidth=2;html=1;direction=south;" vertex="1" parent="WIyWlLk6GJQsqaUBKTNV-1">
          <mxGeometry x="250" y="440" width="10" height="62" as="geometry" />
        </mxCell>
        <mxCell id="9ak0LHtvJR38YGEigGyo-78" value="&lt;ul&gt;&lt;li&gt;PK Prestador&lt;/li&gt;&lt;li&gt;PK Atuação&lt;/li&gt;&lt;/ul&gt;" style="text;strokeColor=none;fillColor=none;html=1;whiteSpace=wrap;verticalAlign=middle;overflow=hidden;" vertex="1" parent="WIyWlLk6GJQsqaUBKTNV-1">
          <mxGeometry x="880" y="365" width="130" height="110" as="geometry" />
        </mxCell>
      </root>
    </mxGraphModel>
  </diagram>
</mxfile>
